<?xml version="1.0" standalone="no"?><!DOCTYPE svg PUBLIC "-//W3C//DTD SVG 1.1//EN" "http://www.w3.org/Graphics/SVG/1.1/DTD/svg11.dtd"><svg class="icon" height="512" viewBox="0 0 1024 1024" version="1.1" xmlns="http://www.w3.org/2000/svg"><path d="M950.670222 774.940444c-47.985778-61.354667-153.713778-134.883556-169.557333-137.927111-15.758222-3.157333-38.485333-8.448-74.126222 17.948444-35.754667 26.396444-54.528 43.690667-54.528 43.690667l-49.664 36.522667c0 0-49.777778 23.125333-109.425778-29.838222-59.676444-53.048889-165.632-185.031111-195.470222-254.464-29.838222-69.575111 29.838222-99.413333 29.838222-99.413333s77.880889-64.597333 81.123556-76.202667c3.328-11.605333 46.449778-57.969778-46.364444-182.215111-92.728889-124.245333-114.261333-99.413333-164.010667-61.269333-49.692444 38.058667-119.409778 112.64-134.172444 198.826667-14.904889 86.101333-24.832 192.142222 101.12 381.041778s316.416 343.808 422.428444 367.018667c106.154667 23.125333 180.707556 38.058667 286.577778-48.042667C980.508444 844.458667 998.798222 836.209778 950.670222 774.940444z" /></svg>