<?xml version="1.0"?>
<svg xmlns="http://www.w3.org/2000/svg" xmlns:xlink="http://www.w3.org/1999/xlink" version="1.1" viewBox="0 0 172 172" width="16px" height="16px"><g fill="none" fill-rule="nonzero" stroke="none" stroke-width="1" stroke-linecap="butt" stroke-linejoin="miter" stroke-miterlimit="10" stroke-dasharray="" stroke-dashoffset="0" font-family="none" font-weight="none" font-size="none" text-anchor="none" style="mix-blend-mode: normal"><path d="M0,172v-172h172v172z" fill="none"/><g fill="#ffffff"><g id="surface1"><path d="M80.625,10.75c-38.59082,0 -69.875,31.24219 -69.875,69.74902c0,30.82227 20.03027,56.98341 47.78711,66.22169c3.48534,0.62987 5.96289,-2.93946 5.96289,-5.62696c0,-1.6377 0.04199,-3.61132 0,-9.40625c-19.44239,4.19922 -25.53125,-9.40625 -25.53125,-9.40625c-3.19141,-8.0625 -7.05469,-10.37207 -7.05469,-10.37207c-6.34082,-4.32519 0.46192,-4.19922 0.46192,-4.19922c7.0127,0.46192 10.62402,6.50879 10.62402,6.50879c5.375,9.40625 17.51074,8.48243 21.5,6.71875c0,-4.2832 0.46192,-7.39062 1.6377,-9.36426c-21.96192,-3.86328 -33.92969,-16.54492 -33.8877,-34.09766c0.04199,-10.37206 3.61133,-18.43456 9.40625,-24.39746c-2.51953,-3.19141 -4.24121,-14.10937 0.92383,-20.82812c12.97558,0 20.70215,9.36426 20.70215,9.36426c0,0 6.08886,-2.64551 17.30078,-2.64551c11.25391,0 17.30078,2.51953 17.30078,2.51953c0,0 7.76855,-9.23828 20.74414,-9.23828c5.16504,6.71875 3.44336,17.63672 1.42774,20.61817c5.54297,5.83692 8.94433,13.89942 8.94433,24.60742c0,17.55274 -11.92578,30.23438 -33.8457,34.05567c1.38574,2.09961 1.5957,5.03906 1.5957,9.40625c0,9.32227 0,17.84668 0,20.15625c0,2.6875 2.43555,6.29883 6.00489,5.62696c27.75683,-9.28028 47.74511,-35.39942 47.74511,-66.22169c0,-38.50683 -31.28418,-69.74902 -69.875,-69.74902z"/></g></g></g></svg>
