<?xml version="1.0" ?><!DOCTYPE svg  PUBLIC '-//W3C//DTD SVG 1.1//EN'  'http://www.w3.org/Graphics/SVG/1.1/DTD/svg11.dtd'><svg enable-background="new 0 0 40 40" version="1.1" viewBox="0 0 40 40" xml:space="preserve" xmlns="http://www.w3.org/2000/svg" xmlns:xlink="http://www.w3.org/1999/xlink"><g id="Social"><g id="GitHub"/><g id="Soundcloud_3_"/><g id="Dropbox_2_"/><g id="Instagram_7_"/><g id="WordPress_3_"/><g id="PlayStation"/><g id="XBox_2_"/><g id="Windows_2_"/><g id="iOS_1_"/><g id="Apple_2_"/><g id="Android_2_"/><g id="Deviantart_2_"/><g id="Yelp_2_"/><g id="Picassa_6_"/><g id="LastFM_2_"/><g id="Amazon_3_"/><g id="AIM_2_"/><g id="fffound_1_"/><g id="Forrst_3_"/><g id="Yahoo_3_"/><g id="YouTube_3_"/><g id="Behance_2_"/><g id="Tumblr_2_"/><g id="Vimeo_2_"/><g id="Skype_3_"/><g id="Pinterest_2_"/><g id="LinkedIn_1_"><path d="M9.4,16.5h4.5V30H9.4V16.5z M25.4,16.1c-2,0-3.1,0.7-4.4,2.3v-1.8h-4.5V30h4.5v-7.3c0-1.5,0.8-3,2.6-3    c1.8,0,2.9,1.5,2.9,3V30H31v-7.6C31,17.1,27.4,16.1,25.4,16.1z M11.6,10C10.2,10,9,11.1,9,12.4c0,1.3,1.2,2.4,2.6,2.4    c1.5,0,2.6-1.1,2.6-2.4C14.3,11.1,13.1,10,11.6,10z" fill="#34495E"/></g><g id="Dribbble_3_"/><g id="Flickr_3_"/><g id="Google_Plus_2_"/><g id="RSS_2_"/><g id="Twitter_2_"/><g id="Facebook_2_"/></g><g id="Lockup"/></svg>