<?xml version="1.0" standalone="no"?><!DOCTYPE svg PUBLIC "-//W3C//DTD SVG 1.1//EN" "http://www.w3.org/Graphics/SVG/1.1/DTD/svg11.dtd"><svg class="icon" height="512" viewBox="0 0 1024 1024" version="1.1" xmlns="http://www.w3.org/2000/svg"><path d="M512 0c281.6 0 512 230.4 512 512s-230.4 512-512 512-512-230.4-512-512 230.4-512 512-512" fill="#EEEEEE" /><path d="M320 249.6c-38.4 0-64 25.6-64 57.6s25.6 57.6 64 57.6 64-25.6 64-57.6-25.6-57.6-64-57.6z m-57.6 505.6h108.8v-339.2h-108.8v339.2z m524.8-198.4c0-19.2 0-32-6.4-51.2-12.8-44.8-32-83.2-83.2-96-51.2-12.8-108.8-6.4-140.8 44.8l-6.4 6.4v-44.8h-115.2v339.2h115.2v-12.8-179.2c0-12.8 6.4-25.6 12.8-38.4 12.8-19.2 32-32 57.6-25.6 25.6 0 38.4 19.2 44.8 38.4 0 12.8 6.4 25.6 6.4 38.4V755.2h115.2v-6.4-192z" fill="#FEFEFE" /></svg>